<svg version="1.1" xmlns="http://www.w3.org/2000/svg" xmlns:xlink="http://www.w3.org/1999/xlink" width="94.7376" height="94.73314" viewBox="0,0,94.7376,94.73314"><defs><linearGradient x1="290.70875" y1="217.75033" x2="349.30663" y2="159.15244" gradientUnits="userSpaceOnUse" id="color-1"><stop offset="0" stop-color="#ee1c56"/><stop offset="1" stop-color="#ee1c56" stop-opacity="0"/></linearGradient></defs><g transform="translate(-272.6312,-132.63343)"><g stroke="none" stroke-width="0.5" stroke-miterlimit="10"><path d="M320.29787,215.35565c3.31371,0 6,2.68629 6,6c0,3.31371 -2.68629,6 -6,6c-0.58373,0 -1.14799,-0.08336 -1.68153,-0.23882c-25.51076,-0.67042 -45.98514,-21.56088 -45.98514,-47.2334c0,-26.09546 21.15454,-47.25 47.25,-47.25v0.23646c0.13767,-0.00944 0.27661,-0.01424 0.41667,-0.01424c3.31371,0 6,2.68629 6,6c0,3.31371 -2.68629,6 -6,6c-0.53867,0 -1.06076,-0.07098 -1.55742,-0.20411c-18.94007,0.60217 -34.10924,16.14555 -34.10924,35.23189c0,19.46804 15.78196,35.25 35.25,35.25v0.23646c0.13767,-0.00944 0.27661,-0.01424 0.41667,-0.01424z" fill="#ee1c56"/><path d="M355.3688,179.6999c0,-3.31371 2.68629,-6 6,-6c3.31371,0 6,2.68629 6,6c0,0.58373 -0.08336,1.14799 -0.23882,1.68153c-0.67042,25.51076 -21.56088,45.98514 -47.2334,45.98514c-26.09546,0 -47.25,-21.15454 -47.25,-47.25h0.23646c-0.00944,-0.13767 -0.01424,-0.27661 -0.01424,-0.41667c0,-3.31371 2.68629,-6 6,-6c3.31371,0 6,2.68629 6,6c0,0.53867 -0.07098,1.06076 -0.20411,1.55742c0.60217,18.94007 16.14555,34.10924 35.23189,34.10924c19.46804,0 35.25,-15.78196 35.25,-35.25h0.23646c-0.00944,-0.13767 -0.01424,-0.27661 -0.01424,-0.41667z" fill="url(#color-1)"/></g></g></svg>