<svg version="1.1" xmlns="http://www.w3.org/2000/svg" xmlns:xlink="http://www.w3.org/1999/xlink" width="333.33333" height="197.7027" viewBox="0,0,333.33333,197.7027"><g transform="translate(-153.33336,-75.87005)"><g stroke="none" stroke-miterlimit="10"><path d="M173.33336,262.5826c-11.04569,0 -20,-8.95431 -20,-20v-116.15616c0,-11.04569 8.95431,-20 20,-20h293.33333c11.0457,0 20,8.95431 20,20v116.15616c0,11.04569 -8.9543,20 -20,20z" fill="#000000" stroke-width="0"/><path d="M173.33336,258.07809c-11.04569,0 -20,-8.95431 -20,-20v-116.15616c0,-11.04569 8.95431,-20 20,-20h293.33333c11.0457,0 20,8.95431 20,20v116.15616c0,11.04569 -8.9543,20 -20,20z" fill="#000d21" stroke-width="0"/><text transform="translate(202.89685,224.8078) scale(3.3631,3.3631)" font-size="40" xml:space="preserve" fill="#9c173d" stroke-width="1" font-family="&quot;Renogare-Regular&quot;, Archivo Black" font-weight="normal" text-anchor="start"><tspan x="0" dy="0">GO</tspan></text><text transform="translate(202.89686,218.8018) scale(3.3631,3.3631)" font-size="40" xml:space="preserve" fill="#db2054" stroke-width="1" font-family="&quot;Renogare-Regular&quot;, Archivo Black" font-weight="normal" text-anchor="start"><tspan x="0" dy="0">GO</tspan></text></g></g></svg>