<svg version="1.1" xmlns="http://www.w3.org/2000/svg" xmlns:xlink="http://www.w3.org/1999/xlink" width="91.45757" height="79.5192" viewBox="0,0,91.45757,79.5192"><g transform="translate(-194.16667,-140.55606)"><g fill="#ee1c56" stroke-width="0" stroke-miterlimit="10"><path d="M194.16669,183.05557c0,-2.97538 0.84836,-3.28231 1.98013,-6.79139c1.52921,-4.74135 0.12625,-13.49323 13.35321,-16.79194c1.93418,-0.48237 7.67776,-0.6631 9.65902,1.0362c0.86935,0.74563 1.80041,-7.15905 13.40678,-13.99229c1.70225,-1.0022 12.08892,-0.25026 17.6513,0.49759c1.51168,0.20324 3.66966,-7.77188 18.27882,-6.26901c12.88198,1.3252 17.00407,15.54623 17.00407,18.31085c0,1.77204 2.28179,14.09711 -12.71354,19.91025c-0.74771,0.28986 1.1497,4.97742 0.36251,5.38926c-0.39583,0.20708 1.6826,2.07376 3.77299,4.2833c0.86363,0.91285 5.54508,5.49854 5.07483,8.27553c-1.17582,6.9436 -10.05082,14.83394 -11.60473,15.5993c-16.90461,8.32615 -39.78764,7.54236 -40.55874,7.54236c-1.81176,0 -17.91573,-7.17221 -25.62296,-15.77524c-3.58749,-4.00446 -1.43903,-13.01895 -2.27492,-13.25423c-4.3023,-1.21097 -7.76879,-3.63 -7.76879,-7.97053zM203.12502,176.79168c0,4.2802 -3.7802,7.74999 0.5,7.74999c0.96554,0 9.48159,6.11913 16.69204,4.70456c4.66511,-0.91521 4.57881,-3.52143 9.57456,-6.209c1.01948,-0.54845 3.856,-0.17308 6.01744,-1.02451c1.05122,-0.41409 1.6333,1.41798 2.7612,1.92914c2.00218,0.90739 4.64874,0.87912 7.02337,-0.25679c3.73707,-1.78763 7.77897,-9.69669 9.92173,-10.32905c0.71844,-0.21202 9.78825,1.44552 12.54044,0.60508c9.15168,-2.79466 13.94494,-10.00807 9.21923,-17.91943c-0.51721,-0.86586 -4.24544,-10.35184 -9.69869,-9.44234c-0.55564,0.09267 -5.23402,0.99723 -8.87959,2.79671c-3.18518,1.57223 -5.40447,4.06425 -5.71975,4.19751c-5.48149,2.31684 -15.73918,0.13526 -19.87054,1.66084c-3.68433,1.3605 -7.07466,6.20078 -10.56752,8.57096c-2.63208,1.78607 -11.56984,1.3012 -16.29888,3.37828c-4.6784,2.05485 -3.21505,7.30942 -3.21504,9.58804zM273.87501,196.54167c0,-2.20914 -1.95875,-4 -4.375,-4c-0.14801,0 -1.87364,0.05335 -2.63724,-2.67665c-0.96363,-3.44512 -0.48772,-9.84147 -0.48772,-9.84147c0,0 -9.38945,0.03153 -9.75608,0.49104c-1.14211,1.43145 -2.77419,8.16989 -8.74065,10.04028c-7.31433,2.29293 -14.31339,-1.67116 -14.31339,-1.67116c0,0 -4.69584,5.66216 -10.44156,6.64984c-10.23286,1.75901 -13.49836,-1.79307 -13.49836,-1.24187c0,0.39675 -6.64673,9.85258 22.40815,18.83347c4.8894,1.51132 25.89311,-3.22375 31.65636,-5.4137c10.14575,-3.85524 10.18549,-8.96063 10.18549,-11.16977z" stroke="#00ff27"/><path d="M257.825,190.79168c0,-1.79493 1.50507,-3.3 3.3,-3.3c1.79493,0 3.3,1.50507 3.3,3.3c0,1.79493 -1.50507,3.3 -3.3,3.3c-1.79493,0 -3.3,-1.50507 -3.3,-3.3z" stroke="none"/></g></g></svg>