<svg height="800" width="800" viewBox="0 0 800 800" xmlns="http://www.w3.org/2000/svg" version="1.2">
	<title>Eitan-Ro AI Logo</title>
	<style>
		.s0 { fill: #db2054 } 
		.s1 { fill: #000000 } 
	</style>
	<path d="m73.8 374.5h46.3v-16.1h-64.8v85.6h64.8v-16h-46.3v-18.3h40.9v-16.1h-40.9zm81.7-11.2c0-5.1-4.4-9.3-9.6-9.3-5.4 0-9.9 4.2-9.9 9.3 0 5.3 4.5 9.5 9.9 9.5 5.2 0 9.6-4.2 9.6-9.5zm-18.4 80.7h17.5v-64.3h-17.5zm56.5-50.1h12.9v-15.3h-12.9v-17.2h-17.3v17.2h-7.8v15.3h7.8v35.7c0 13.6 8.3 16.1 21.9 16.1 2.5 0 5.7-0.3 7.8-0.5v-14.8c-1 0.2-2.4 0.3-4.4 0.3-7.9 0-8-6.1-8-9.6zm75.2 50.1h17.3v-64.4h-17.3v6.7c-3.3-4.4-10.2-8.1-19.6-8.1-20.3 0-32.3 15.1-32.3 33.6 0 18.5 12 33.6 32.3 33.6 9.2 0 16.9-4.2 19.6-7.9zm0.7-32.2c0 11.3-6.8 18.2-17.7 18.2-10.8 0-17.7-8-17.7-18.2 0-10.5 6.6-18.2 17.7-18.2 10.9 0 17.7 7.6 17.7 18.2zm68.5-33.3c-5.8 0-12.9 2.6-17.3 6.9v-5.7h-17.4v64.3h17.4v-34c-0.3-14.1 7.5-17 12.3-17 6.8 0 12.4 3 12.4 13v38h18v-38c0-16.7-6.8-27.5-25.4-27.5zm77.2 39.8v-15.9h-37.2v15.9zm34.4 25.7v-26.7h12.6c7.1 9.4 13.5 18 20.5 26.7h22.1c-6.9-9.1-14.7-19.4-22.1-28.6 10.7-4.6 17.5-14.8 17.5-27.2 0-17.6-12.6-29.7-30.9-29.7h-38.1v85.5zm0-42.7v-26.8h19.7c10.9 0 12.5 9.3 12.5 13.7 0 8.9-6.8 13.1-12.5 13.1zm95.3 44.3c19.2 0 35.1-15 35.1-33.6 0-18.4-15.9-33.5-35.1-33.5-19.2 0-34.9 15.1-34.9 33.5 0 18.6 15.7 33.6 34.9 33.6zm0-51.8c9.9 0 17.6 7.9 17.6 18.2 0 10.4-7.7 18.3-17.6 18.3-10.1 0-17.7-7.7-17.7-18.3 0-10.2 7.8-18.2 17.7-18.2z" aria-label="Eitan-Ro AI" class="s0" id="Eitan-Ro AI"></path>
	<path d="m621 444h20.4l6.5-13.1h39.9l6.8 13.1h20.3l-47-88.3zm36.1-28.9l10.9-22.3 11 22.3zm88.2 28.9v-85.5h-18.5v85.5z" aria-label="Eitan-Ro AI" class="s1" id="Eitan-Ro AI"></path>
</svg>