<svg version="1.1" xmlns="http://www.w3.org/2000/svg" xmlns:xlink="http://www.w3.org/1999/xlink" width="91.45757" height="79.5192" viewBox="0,0,91.45757,79.5192"><g transform="translate(-194.16666,-140.55605)"><g stroke-width="0" stroke-miterlimit="10"><path d="M194.16669,183.05557c0,-2.97538 0.84836,-3.28231 1.98013,-6.79139c1.52921,-4.74135 0.12625,-13.49323 13.35321,-16.79194c1.93418,-0.48237 7.67776,-0.6631 9.65902,1.0362c0.86935,0.74563 1.80041,-7.15905 13.40678,-13.99229c1.70225,-1.0022 12.08892,-0.25026 17.6513,0.49759c1.51168,0.20324 3.66966,-7.77188 18.27882,-6.26901c12.88198,1.3252 17.00407,15.54623 17.00407,18.31085c0,1.77204 2.28179,14.09711 -12.71354,19.91025c-0.74771,0.28986 1.1497,4.97742 0.36251,5.38926c-0.39583,0.20708 1.6826,2.07376 3.77299,4.2833c0.86363,0.91285 5.54508,5.49854 5.07483,8.27553c-1.17582,6.9436 -10.05082,14.83394 -11.60473,15.5993c-16.90461,8.32615 -39.78764,7.54236 -40.55874,7.54236c-1.81176,0 -17.91573,-7.17221 -25.62296,-15.77524c-3.58749,-4.00446 -1.43903,-13.01895 -2.27492,-13.25423c-4.3023,-1.21097 -7.76879,-3.63 -7.76879,-7.97053zM260.83333,187.47223c-1.79492,0 -3.25,1.45507 -3.25,3.25c0,1.58681 1.13722,2.90801 2.6411,3.19305c0.28597,0.0823 0.58812,0.12639 0.90057,0.12639c1.79493,0 3.25,-1.45507 3.25,-3.25c0,-1.58681 -1.13721,-2.90801 -2.6411,-3.19305c-0.28597,-0.0823 -0.58812,-0.12639 -0.90057,-0.12639z" fill="#000000" stroke="#00ff27"/><path d="M273.87501,196.54168c0,2.20914 -0.03974,7.31453 -10.18549,11.16977c-5.76325,2.18995 -26.76696,6.92502 -31.65636,5.4137c-29.05488,-8.98089 -22.40815,-18.43672 -22.40815,-18.83347c0,-0.5512 3.2655,3.00088 13.49836,1.24187c5.74572,-0.98768 10.44156,-6.64984 10.44156,-6.64984c0,0 6.99906,3.96409 14.31339,1.67116c5.96646,-1.87039 7.59854,-8.60883 8.74065,-10.04028c0.36663,-0.45951 9.75608,-0.49104 9.75608,-0.49104c0,0 -0.47591,6.39635 0.48772,9.84147c0.7636,2.73 2.48923,2.67665 2.63724,2.67665c2.41625,0 4.375,1.79086 4.375,4zM261.12501,194.04168c1.79493,0 3.25,-1.45507 3.25,-3.25c0,-1.79493 -1.45507,-3.25 -3.25,-3.25c-1.79493,0 -3.25,1.45507 -3.25,3.25c0,1.79493 1.45507,3.25 3.25,3.25z" fill="#ee1c56" stroke="none"/><path d="M257.825,190.79168c0,-1.79493 1.50507,-3.3 3.3,-3.3c1.79493,0 3.3,1.50507 3.3,3.3c0,1.79493 -1.50507,3.3 -3.3,3.3c-1.79493,0 -3.3,-1.50507 -3.3,-3.3z" fill="#000000" stroke="none"/><path d="M203.12501,176.79168c0,-2.27862 -1.46337,-7.5332 3.21504,-9.58805c4.72904,-2.07708 13.6668,-1.59221 16.29888,-3.37828c3.49286,-2.37018 6.88319,-7.21046 10.56752,-8.57096c4.13136,-1.52558 14.38905,0.656 19.87054,-1.66084c0.31528,-0.13326 2.53457,-2.62528 5.71975,-4.19751c3.64557,-1.79948 8.32395,-2.70404 8.87959,-2.79671c5.45325,-0.9095 9.18148,8.57648 9.69869,9.44234c4.72571,7.91136 -0.06755,15.12477 -9.21923,17.91943c-2.75219,0.84044 -11.822,-0.8171 -12.54044,-0.60508c-2.14276,0.63236 -6.18466,8.54142 -9.92173,10.32905c-2.37463,1.13591 -5.02119,1.16418 -7.02337,0.25679c-1.1279,-0.51116 -1.70998,-2.34323 -2.7612,-1.92914c-2.16144,0.85143 -4.99796,0.47606 -6.01744,1.02451c-4.99575,2.68757 -4.90945,5.29379 -9.57456,6.209c-7.21045,1.41457 -15.7265,-4.70456 -16.69204,-4.70456c-4.28021,0 -0.5,-3.46979 -0.5,-7.75z" fill="#ee1c56" stroke="none"/></g></g></svg>